<svg width="107" height="107" viewBox="0 0 107 107" fill="none" xmlns="http://www.w3.org/2000/svg">
<path d="M73.5625 10.0312H33.4375C27.2318 10.0379 21.2822 12.506 16.8941 16.8941C12.506 21.2822 10.0379 27.2318 10.0312 33.4375V73.5625C10.0379 79.7682 12.506 85.7178 16.8941 90.1059C21.2822 94.494 27.2318 96.9621 33.4375 96.9688H73.5625C79.7682 96.9621 85.7178 94.494 90.1059 90.1059C94.494 85.7178 96.9621 79.7682 96.9688 73.5625V33.4375C96.9621 27.2318 94.494 21.2822 90.1059 16.8941C85.7178 12.506 79.7682 10.0379 73.5625 10.0312ZM53.5 73.5625C49.532 73.5625 45.6531 72.3859 42.3539 70.1814C39.0546 67.9769 36.4832 64.8435 34.9647 61.1776C33.4462 57.5116 33.0489 53.4777 33.823 49.586C34.5971 45.6943 36.5079 42.1195 39.3137 39.3137C42.1195 36.5079 45.6943 34.5971 49.586 33.823C53.4777 33.0489 57.5116 33.4462 61.1776 34.9647C64.8435 36.4832 67.9769 39.0546 70.1814 42.3539C72.3859 45.6531 73.5625 49.532 73.5625 53.5C73.557 58.8192 71.4415 63.919 67.6802 67.6802C63.919 71.4415 58.8192 73.557 53.5 73.5625ZM78.5781 33.4375C77.5861 33.4375 76.6164 33.1433 75.7916 32.5922C74.9668 32.0411 74.3239 31.2578 73.9443 30.3413C73.5647 29.4248 73.4653 28.4163 73.6589 27.4434C73.8524 26.4704 74.3301 25.5767 75.0315 24.8753C75.733 24.1738 76.6267 23.6962 77.5996 23.5026C78.5726 23.3091 79.581 23.4084 80.4975 23.788C81.414 24.1677 82.1973 24.8105 82.7485 25.6353C83.2996 26.4602 83.5938 27.4299 83.5938 28.4219C83.5938 29.7521 83.0653 31.0278 82.1247 31.9685C81.1841 32.9091 79.9084 33.4375 78.5781 33.4375ZM66.875 53.5C66.875 56.1453 66.0906 58.7312 64.6209 60.9308C63.1512 63.1303 61.0624 64.8446 58.6184 65.8569C56.1744 66.8692 53.4852 67.1341 50.8907 66.618C48.2962 66.1019 45.913 64.8281 44.0424 62.9576C42.1719 61.087 40.8981 58.7038 40.382 56.1093C39.8659 53.5148 40.1308 50.8256 41.1431 48.3816C42.1554 45.9376 43.8697 43.8488 46.0692 42.3791C48.2688 40.9094 50.8547 40.125 53.5 40.125C57.0473 40.125 60.4493 41.5341 62.9576 44.0424C65.4658 46.5507 66.875 49.9527 66.875 53.5Z" fill="white"/>
</svg>
