<svg width="129" height="129" viewBox="0 0 129 129" fill="none" xmlns="http://www.w3.org/2000/svg">
<g clip-path="url(#clip0_64550_138)">
<path fill-rule="evenodd" clip-rule="evenodd" d="M111.408 62.7639C120.405 62.7639 127.694 70.1169 127.694 79.1845C127.694 88.2575 120.405 95.6159 111.408 95.6159L66.2577 95.589C65.7786 95.5353 65.3355 95.3085 65.0119 94.9512C64.6882 94.5939 64.5062 94.1307 64.5 93.6486V41.5111C64.5108 40.5544 64.8387 40.0599 66.0695 39.5815C69.3915 38.2928 72.9231 37.6295 76.4863 37.625C91.504 37.625 103.813 49.235 105.108 64.0377C107.102 63.1961 109.244 62.763 111.408 62.7639ZM55.0239 96.75H49.794C49.4139 96.7443 49.0513 96.5886 48.7855 96.3167C48.5197 96.0449 48.3722 95.679 48.375 95.2987V41.7637C48.375 40.9682 49.0147 40.3125 49.794 40.3125H55.0185C55.7979 40.3125 56.4375 40.9682 56.4375 41.7637V95.2987C56.4375 96.0942 55.7979 96.75 55.0185 96.75H55.0239ZM6.64892 88.6714H1.41367C1.03492 88.6657 0.673767 88.5105 0.408959 88.2397C0.14415 87.9688 -0.00283821 87.6043 4.15293e-05 87.2255V73.9922C4.15293e-05 73.1967 0.639667 72.5464 1.41904 72.5464H6.64354C7.42292 72.5464 8.06254 73.1968 8.06254 73.9976V87.2255C8.06254 88.021 7.42292 88.6767 6.64354 88.6767L6.64892 88.6714ZM38.8989 96.75H33.669C33.2979 96.7543 32.9402 96.6114 32.6742 96.3524C32.4082 96.0935 32.2557 95.7398 32.25 95.3686V60.5064C32.25 59.7485 32.8897 59.125 33.669 59.125H38.8935C39.6729 59.125 40.3125 59.7485 40.3125 60.5064V95.3686C40.3069 95.7398 40.1544 96.0935 39.8884 96.3524C39.6224 96.6114 39.2701 96.7543 38.8989 96.75ZM22.7739 96.75H17.544C17.178 96.7587 16.8234 96.6223 16.5576 96.3706C16.2918 96.1188 16.1363 95.7722 16.125 95.4062V68.5312C16.125 67.7949 16.7647 67.1875 17.544 67.1875H22.7685C23.5479 67.1875 24.1875 67.7949 24.1875 68.5312V95.4062C24.1875 96.1426 23.5533 96.75 22.7739 96.75Z" fill="white"/>
</g>
<defs>
<clipPath id="clip0_64550_138">
<rect width="129" height="129" fill="white"/>
</clipPath>
</defs>
</svg>
