<svg width="107" height="107" viewBox="0 0 107 107" fill="none" xmlns="http://www.w3.org/2000/svg">
<path d="M79.8041 48.5959C65.5375 40.1251 41.6854 39.2334 28.0875 43.4688C25.8583 44.1376 23.6291 42.8001 22.9604 40.7938C22.2916 38.5647 23.6291 36.3355 25.6354 35.6667C41.4625 30.9855 67.5437 31.8772 84.0395 41.6855C86.0458 42.8001 86.7145 45.4751 85.6 47.4813C84.4854 49.0417 81.8104 49.7105 79.8041 48.5959ZM79.3583 61.0792C78.2437 62.6397 76.2375 63.3084 74.677 62.1938C62.6395 54.8376 44.3604 52.6084 30.3166 57.0667C28.5333 57.5126 26.527 56.6209 26.0812 54.8376C25.6354 53.0542 26.527 51.048 28.3104 50.6022C44.5833 45.698 64.6458 48.1501 78.4666 56.6209C79.8041 57.2897 80.4729 59.5188 79.3583 61.0792ZM74.0083 73.3397C73.1166 74.6772 71.5562 75.123 70.2187 74.2313C59.7416 67.7667 46.5895 66.4292 30.9854 69.9959C29.425 70.4417 28.0875 69.3272 27.6416 67.9897C27.1958 66.4292 28.3104 65.0917 29.6479 64.6459C46.5895 60.8563 61.302 62.4167 72.8937 69.5501C74.4541 70.2188 74.677 72.0022 74.0083 73.3397ZM53.5 8.91675C47.6452 8.91675 41.8478 10.0699 36.4387 12.3105C31.0296 14.551 26.1147 17.835 21.9748 21.9749C13.6138 30.3359 8.91663 41.6758 8.91663 53.5001C8.91663 65.3243 13.6138 76.6643 21.9748 85.0253C26.1147 89.1652 31.0296 92.4492 36.4387 94.6897C41.8478 96.9302 47.6452 98.0834 53.5 98.0834C65.3242 98.0834 76.6641 93.3862 85.0251 85.0253C93.3861 76.6643 98.0833 65.3243 98.0833 53.5001C98.0833 47.6453 96.9301 41.8479 94.6896 36.4388C92.4491 31.0297 89.1651 26.1148 85.0251 21.9749C80.8852 17.835 75.9704 14.551 70.5613 12.3105C65.1522 10.0699 59.3547 8.91675 53.5 8.91675Z" fill="white"/>
</svg>
