<svg width="107" height="107" viewBox="0 0 107 107" fill="none" xmlns="http://www.w3.org/2000/svg">
<path d="M44.5833 66.8751L67.722 53.5001L44.5833 40.1251V66.8751ZM96.1216 31.9663C96.7012 34.0617 97.1025 36.8705 97.37 40.4372C97.682 44.0038 97.8158 47.0801 97.8158 49.7551L98.0833 53.5001C98.0833 63.2638 97.37 70.4417 96.1216 75.0338C95.007 79.0463 92.4212 81.6322 88.4087 82.7467C86.3133 83.3263 82.4791 83.7276 76.5941 83.9951C70.7983 84.3072 65.4929 84.4409 60.5887 84.4409L53.5 84.7084C34.8195 84.7084 23.1833 83.9951 18.5912 82.7467C14.5787 81.6322 11.9929 79.0463 10.8783 75.0338C10.2987 72.9384 9.89746 70.1297 9.62996 66.563C9.31788 62.9963 9.18413 59.9201 9.18413 57.2451L8.91663 53.5001C8.91663 43.7363 9.62996 36.5584 10.8783 31.9663C11.9929 27.9538 14.5787 25.368 18.5912 24.2534C20.6866 23.6738 24.5208 23.2726 30.4058 23.0051C36.2016 22.693 41.507 22.5592 46.4112 22.5592L53.5 22.2917C72.1804 22.2917 83.8166 23.0051 88.4087 24.2534C92.4212 25.368 95.007 27.9538 96.1216 31.9663Z" fill="white"/>
</svg>
